<?xml version="1.0" standalone="no"?>
<!DOCTYPE svg PUBLIC "-//W3C//DTD SVG 20010904//EN"
 "http://www.w3.org/TR/2001/REC-SVG-20010904/DTD/svg10.dtd">
<svg version="1.0" xmlns="http://www.w3.org/2000/svg"
 width="398.000000pt" height="398.000000pt" viewBox="0 0 398.000000 398.000000"
 preserveAspectRatio="xMidYMid meet">
<metadata>
Created by potrace 1.14, written by Peter Selinger 2001-2017
</metadata>
<g transform="translate(0.000000,398.000000) scale(0.100000,-0.100000)"
fill="#000000" stroke="none">
<path d="M1571 3618 c-63 -10 -106 -33 -154 -87 -34 -37 -44 -61 -67 -149 -6
-23 -15 -40 -19 -37 -14 8 -29 -18 -24 -45 2 -14 5 -86 7 -161 3 -143 13 -186
58 -233 18 -20 18 -21 1 -27 -10 -4 -56 -20 -103 -37 -47 -17 -91 -32 -99 -34
-8 -2 -18 15 -28 47 -8 28 -21 57 -28 65 -23 27 -27 59 -11 81 10 15 13 35 9
65 -5 41 -3 45 28 61 55 30 91 66 84 85 -13 32 -44 27 -110 -18 -59 -41 -65
-43 -65 -23 0 19 -4 21 -32 15 -18 -4 -50 -18 -70 -31 -36 -24 -43 -37 -39
-76 1 -10 -17 -28 -41 -44 -38 -25 -88 -83 -88 -104 0 -13 92 12 123 33 22 15
30 16 42 6 8 -7 12 -17 8 -24 -17 -26 -12 -127 11 -215 13 -50 20 -91 15 -91
-5 0 -9 4 -9 9 0 10 -91 71 -134 89 -24 11 -28 10 -23 -2 6 -15 -38 -36 -74
-36 -11 0 -19 -5 -19 -11 0 -9 64 -172 106 -269 9 -19 32 -75 53 -125 33 -80
41 -92 77 -109 172 -85 164 -79 138 -107 -31 -34 -26 -139 9 -210 27 -56 34
-85 19 -75 -5 3 -32 -1 -61 -9 -61 -16 -57 -15 -79 -15 -25 0 -45 -45 -32 -70
13 -24 89 -70 116 -70 37 0 46 -14 24 -38 -25 -27 -26 -56 -1 -81 17 -17 25
-18 63 -10 23 6 58 19 76 29 l32 19 0 -479 c0 -377 3 -480 13 -481 58 -2 499
3 516 6 11 2 21 -1 21 -6 0 -6 6 -7 12 -3 18 11 48 12 48 2 0 -5 4 -6 10 -3
24 15 50 13 50 -3 0 -14 2 -15 9 -3 10 16 51 23 51 9 0 -5 5 -6 12 -2 6 4 52
8 102 8 68 1 96 -2 111 -14 18 -14 19 -14 7 1 -10 14 -8 16 23 14 19 -1 43 -9
52 -16 16 -12 17 -12 6 1 -10 14 -5 16 43 15 44 0 53 -3 49 -15 -4 -13 -3 -13
7 0 13 16 63 25 53 10 -3 -5 -1 -12 5 -15 6 -4 9 -1 8 6 -2 9 9 14 30 14 22 1
32 -3 33 -14 0 -14 1 -14 7 -1 5 11 24 15 64 16 41 1 56 -2 51 -10 -5 -8 -3
-8 8 0 19 15 62 12 85 -6 17 -14 18 -13 7 1 -18 23 -13 1218 5 1240 7 8 29 34
49 59 98 120 340 345 486 453 43 32 45 43 15 68 -23 21 -39 26 -213 63 -66 15
-134 31 -151 36 -57 18 -57 18 -206 -154 -14 -17 -38 -44 -52 -61 -14 -16 -59
-73 -99 -126 l-72 -96 -366 -1 -366 0 23 45 c12 25 31 55 43 67 15 16 21 37
23 88 l2 67 43 7 c49 7 89 40 99 80 8 30 -11 112 -58 258 -38 119 -56 142
-124 162 -30 8 -66 27 -79 40 l-24 24 23 25 c13 14 34 41 47 60 13 19 32 35
41 35 27 0 95 67 108 105 9 27 8 41 -2 62 -12 24 -11 36 5 88 38 121 -4 230
-113 297 -66 40 -178 59 -269 46z m789 -1785 c0 -3 -15 -31 -34 -62 -19 -31
-44 -74 -57 -96 -27 -48 -164 -324 -172 -345 -3 -9 -19 15 -40 60 -41 90 -83
160 -157 263 -44 62 -59 77 -76 74 -12 -2 -76 -37 -143 -78 -104 -64 -121 -78
-127 -105 -5 -29 1 -38 83 -120 140 -142 231 -276 290 -429 15 -38 30 -75 35
-81 4 -6 53 -10 124 -10 l117 1 101 200 c56 110 121 234 146 275 l45 75 3
-163 c1 -89 1 -235 0 -324 l-3 -162 -492 -2 c-377 -2 -493 0 -494 9 -4 55 -3
1011 2 1018 3 5 172 10 376 11 369 3 473 1 473 -9z"/>
<path d="M307 1142 c-21 -4 -21 -16 -2 -46 15 -23 11 -56 -6 -56 -5 0 -9 -6
-9 -12 0 -7 -15 -20 -33 -28 -28 -13 -32 -20 -35 -61 -2 -32 2 -50 13 -59 8
-7 15 -21 15 -31 0 -11 5 -19 10 -19 6 0 10 -9 10 -20 0 -11 -4 -20 -10 -20
-5 0 -10 -7 -10 -15 0 -19 -29 -31 -77 -34 -17 -1 -16 -28 1 -38 13 -7 20 -37
17 -70 -1 -7 -7 -13 -15 -13 -23 0 -11 -33 16 -45 20 -8 23 -13 13 -21 -10
-10 -12 -39 -6 -106 0 -9 16 -22 36 -29 19 -7 35 -17 35 -21 0 -4 5 -8 11 -8
6 0 45 -17 87 -37 42 -20 89 -36 105 -35 15 1 27 -3 27 -10 0 -6 -3 -8 -6 -5
-8 7 -44 -10 -44 -21 0 -4 10 -7 23 -8 12 0 49 -4 82 -8 33 -5 71 -9 85 -11
14 -2 46 -6 73 -9 26 -3 66 -8 90 -11 80 -10 112 -14 149 -20 30 -5 53 1 125
34 315 143 359 166 321 168 -7 1 -31 4 -53 7 -22 3 -74 8 -115 11 -117 8 -140
13 -140 34 0 10 9 21 20 24 29 8 24 35 -7 44 l-28 7 30 6 c37 6 58 46 57 105
-2 78 -13 91 -86 105 -64 12 -65 12 -55 38 6 14 7 38 3 52 -4 14 -7 28 -6 32
1 3 -5 12 -13 18 -19 15 -19 36 -2 47 18 11 28 53 14 54 -7 1 -20 2 -29 2 -15
0 -16 3 -4 26 7 14 11 32 10 39 -1 6 -2 16 -3 20 0 5 -10 18 -20 29 -17 17
-33 21 -108 23 -159 4 -539 5 -556 2z m228 -822 c-3 -5 -12 -10 -18 -10 -7 0
-6 4 3 10 19 12 23 12 15 0z"/>
<path d="M3308 1005 c-2 -2 -57 -7 -123 -10 -66 -4 -129 -9 -140 -10 -11 -1
-36 -3 -56 -4 -41 -1 -57 -27 -32 -50 12 -11 12 -15 -1 -30 -9 -10 -13 -21 -9
-24 6 -6 -15 -11 -45 -10 -20 1 -34 -69 -21 -104 8 -21 6 -23 -26 -23 -19 0
-35 -3 -36 -7 0 -5 -3 -17 -6 -28 -17 -69 0 -125 38 -125 10 0 17 -5 14 -12
-26 -78 -4 -113 83 -131 36 -8 59 -17 55 -22 -4 -5 0 -3 10 4 9 7 17 9 17 4 0
-5 8 -9 18 -9 39 -1 211 -37 207 -43 -2 -4 18 -4 46 -1 32 4 49 3 49 -4 0 -7
3 -7 8 1 4 6 27 14 52 18 25 3 53 9 64 12 14 4 16 2 11 -8 -6 -10 -3 -9 11 1
10 9 36 16 57 15 20 0 37 3 37 7 0 5 5 8 11 8 5 0 7 -6 3 -12 -6 -9 -3 -9 9 0
9 8 21 11 27 7 5 -3 10 -1 10 5 0 7 6 10 13 7 6 -2 23 0 36 5 17 6 27 5 33 -4
5 -9 8 -9 8 -1 0 6 13 14 29 18 29 6 46 28 35 46 -3 5 -10 7 -15 4 -5 -4 -9
-3 -10 2 0 4 -2 15 -4 24 -2 11 12 22 41 34 34 14 44 23 44 42 0 14 -6 23 -15
23 -22 0 -20 56 3 62 10 3 18 15 19 26 1 18 -4 22 -30 24 -18 0 -36 2 -42 3
-5 2 -20 3 -32 4 -13 0 -23 6 -23 12 0 6 -7 17 -15 25 -11 12 -12 20 -5 35 6
10 15 19 20 19 6 0 10 9 10 20 0 16 -7 20 -34 20 -34 0 -34 0 -23 30 15 40 -6
80 -48 92 -29 7 -330 19 -337 13z"/>
<path d="M1225 580 c-3 -6 1 -7 9 -4 18 7 21 14 7 14 -6 0 -13 -4 -16 -10z"/>
<path d="M2350 509 c-85 -15 -171 -30 -190 -34 -19 -3 -60 -10 -90 -15 -30 -5
-71 -12 -90 -15 -19 -3 -36 -10 -38 -14 -1 -5 -25 -43 -52 -85 -42 -64 -50
-82 -47 -116 2 -22 6 -42 9 -45 3 -4 87 -6 187 -5 139 0 181 -3 182 -12 1 -7
3 -22 4 -33 1 -11 3 -27 3 -37 2 -14 23 -16 195 -17 223 -2 226 -2 243 -25 11
-15 22 -17 81 -11 37 4 75 9 84 10 9 2 40 6 70 10 30 3 65 8 79 10 14 3 50 7
80 10 74 8 134 16 138 20 2 1 -49 46 -112 99 -63 53 -118 101 -121 106 -4 6
-9 9 -13 6 -4 -2 -34 -7 -67 -10 -33 -4 -73 -9 -89 -12 -32 -7 -45 6 -46 46
-1 20 -23 42 -111 109 -61 47 -116 85 -122 86 -7 1 -82 -11 -167 -26z"/>
<path d="M167 439 c7 -7 15 -10 18 -7 3 3 -2 9 -12 12 -14 6 -15 5 -6 -5z"/>
</g>
</svg>
